<?xml version="1.0" standalone="no"?><!DOCTYPE svg PUBLIC "-//W3C//DTD SVG 1.1//EN" "http://www.w3.org/Graphics/SVG/1.1/DTD/svg11.dtd"><svg t="1605494148515" class="icon" viewBox="0 0 1024 1024" version="1.1" xmlns="http://www.w3.org/2000/svg" p-id="2933" xmlns:xlink="http://www.w3.org/1999/xlink" width="128" height="128"><defs><style type="text/css"></style></defs><path d="M317.905455 201.774545a198.749091 198.749091 0 0 1 143.825454 61.44l50.269091 51.2 50.036364-51.2a199.214545 199.214545 0 0 1 290.443636 2.792728 225.512727 225.512727 0 0 1-8.610909 303.941818L530.618182 891.345455a24.901818 24.901818 0 0 1-37.701818 0L179.898182 569.949091a225.512727 225.512727 0 0 1-8.610909-303.941818 199.68 199.68 0 0 1 146.618182-64.232728m387.723636-69.818181A269.963636 269.963636 0 0 0 512 214.341818a269.265455 269.265455 0 0 0-391.447273 3.956364C16.290909 329.076364 23.272727 509.905455 129.861818 618.821818L442.181818 940.218182a94.952727 94.952727 0 0 0 137.774546 0L893.672727 618.821818c105.890909-108.916364 113.338182-289.745455 9.541818-400.523636a269.498182 269.498182 0 0 0-197.585454-86.341818z" p-id="2934"></path></svg>