<?xml version="1.0" standalone="no"?><!DOCTYPE svg PUBLIC "-//W3C//DTD SVG 1.1//EN" "http://www.w3.org/Graphics/SVG/1.1/DTD/svg11.dtd"><svg t="1601364004007" class="icon" viewBox="0 0 1024 1024" version="1.1" xmlns="http://www.w3.org/2000/svg" p-id="3293" xmlns:xlink="http://www.w3.org/1999/xlink" width="64" height="64"><defs><style type="text/css"></style></defs><path d="M950.42 186.4a32 32 0 0 0-45.25 0.11L425.26 668.84A32 32 0 1 0 470.63 714l479.9-482.35a32 32 0 0 0-0.11-45.25z" p-id="3294"></path><path d="M863.85 420.05a32 32 0 0 0-32 32v410.9h-703.7v-701.9H800a32 32 0 1 0 0-64H128a64 64 0 0 0-63.87 64V863A64 64 0 0 0 128 927h704a64 64 0 0 0 63.87-64V452.05a32 32 0 0 0-32.02-32z" p-id="3295"></path><path d="M403.74 269.44l-20.27 20.27-20.27-20.27a50.15 50.15 0 0 0-70.71 0 50.15 50.15 0 0 0 0 70.71l20.27 20.27 70.71 70.71 70.71-70.71 20.27-20.27a50.15 50.15 0 0 0 0-70.71 50.15 50.15 0 0 0-70.71 0z" p-id="3296"></path></svg>