<?xml version="1.0" standalone="no"?><!DOCTYPE svg PUBLIC "-//W3C//DTD SVG 1.1//EN" "http://www.w3.org/Graphics/SVG/1.1/DTD/svg11.dtd"><svg t="1604210236972" class="icon" viewBox="0 0 1024 1024" version="1.1" xmlns="http://www.w3.org/2000/svg" p-id="3064" xmlns:xlink="http://www.w3.org/1999/xlink" width="128" height="128"><defs><style type="text/css"></style></defs><path d="M662.6 418.4c-84.9 0-154-69.1-154-154s69.1-154 154-154 154 69.1 154 154-69 154-154 154z m0-260c-58.4 0-106 47.6-106 106s47.6 106 106 106 106-47.6 106-106-47.5-106-106-106zM219.2 759.1c-71.1 0-129-57.9-129-129s57.9-129 129-129 129 57.9 129 129c0 11.4-1.5 22.7-4.4 33.6-3.4 12.8-16.6 20.4-29.4 16.9-12.8-3.4-20.4-16.6-16.9-29.4 1.8-6.8 2.8-13.9 2.8-21.1 0-44.7-36.3-81-81-81s-81 36.3-81 81 36.3 81 81 81c17.5 0 34.1-5.5 48.1-15.8 10.7-7.9 25.7-5.6 33.6 5s5.6 25.7-5 33.6c-22.5 16.5-49 25.2-76.8 25.2zM717.9 915c-29.3 0-57.2-6.7-83.2-19.8-24.7-12.5-46.6-30.8-63.4-53-8-10.6-6-25.6 4.6-33.6s25.6-6 33.6 4.6c26 34.2 65.5 53.8 108.4 53.8 75 0 136-61 136-136s-61-136-136-136-136 61-136 136c0 13.3-10.7 24-24 24s-24-10.7-24-24c0-101.5 82.5-184 184-184s184 82.5 184 184-82.6 184-184 184z" p-id="3065"></path><path d="M296.1 571.1c-7.2 0-14.3-3.2-19-9.3-8.1-10.5-6.2-25.6 4.3-33.7l262.5-202.5c10.5-8.1 25.6-6.2 33.7 4.3 8.1 10.5 6.2 25.6-4.3 33.7L310.8 566.1c-4.4 3.4-9.5 5-14.7 5zM557.4 757.1c-2.4 0-4.9-0.4-7.3-1.1l-235.7-75c-12.6-4-19.6-17.5-15.6-30.1 4-12.6 17.5-19.6 30.1-15.6l235.7 75c12.6 4 19.6 17.5 15.6 30.1-3.2 10.1-12.6 16.7-22.8 16.7z" p-id="3066"></path></svg>