<?xml version="1.0" standalone="no"?><!DOCTYPE svg PUBLIC "-//W3C//DTD SVG 1.1//EN" "http://www.w3.org/Graphics/SVG/1.1/DTD/svg11.dtd"><svg t="1606281946327" class="icon" viewBox="0 0 1024 1024" version="1.1" xmlns="http://www.w3.org/2000/svg" p-id="3115" xmlns:xlink="http://www.w3.org/1999/xlink" width="128" height="128"><defs><style type="text/css"></style></defs><path d="M727.6 483.6H538.5V294.5c0-41.1 12.3-80.3 35.5-113.3 21.6-30.7 51.6-54.8 86.7-69.7 33.9-14.4 70.4-19.1 105.6-13.7 37.9 5.8 73 23.5 101.5 51.1l2.7 2.7 2.7 2.7c27.6 28.5 45.3 63.6 51.1 101.5 5.4 35.1 0.7 71.7-13.7 105.6-14.9 35.1-39 65.1-69.7 86.7-33 23.3-72.2 35.5-113.3 35.5z m-145.1-44h145.1c32 0 62.4-9.5 88-27.4 24-16.9 42.9-40.4 54.5-67.9 11.2-26.4 14.9-54.6 10.7-81.7-4.5-29.3-17.7-55.4-39.2-77.6-0.7-0.7-1.4-1.5-2.2-2.2-0.7-0.7-1.5-1.4-2.2-2.2-22.2-21.5-48.4-34.7-77.6-39.2-27.1-4.2-55.3-0.5-81.7 10.7-27.5 11.7-51 30.5-67.9 54.5-18 25.5-27.4 55.9-27.4 88l-0.1 145zM484.2 483.6H295.1c-41.1 0-80.3-12.3-113.3-35.5-30.7-21.6-54.8-51.6-69.7-86.7C97.7 327.5 93 291 98.4 255.9c5.8-37.9 23.5-73 51.1-101.5l2.7-2.7 2.7-2.7c28.5-27.6 63.6-45.3 101.5-51.1 35.1-5.4 71.7-0.7 105.6 13.7 35.1 14.9 65.1 39 86.7 69.7 23.2 33 35.5 72.2 35.5 113.3v189zM285 139.7c-7.3 0-14.6 0.6-21.8 1.7-29.3 4.5-55.4 17.7-77.6 39.2-0.7 0.7-1.5 1.4-2.2 2.2l-2.2 2.2c-21.5 22.2-34.7 48.4-39.2 77.6-4.2 27.1-0.5 55.3 10.7 81.7 11.7 27.5 30.5 51 54.5 67.9 25.5 18 55.9 27.4 88 27.4h145.1V294.5c0-32-9.5-62.4-27.4-88-16.9-24-40.4-42.9-67.9-54.5-19.5-8.1-39.9-12.3-60-12.3zM285 925.9c-9.6 0-19.1-0.7-28.5-2.2-37.9-5.8-73-23.5-101.5-51.1l-2.7-2.7-2.7-2.7c-27.6-28.5-45.3-63.6-51.1-101.5-5.4-35.1-0.7-71.7 13.7-105.6 14.9-35.1 39-65.1 69.7-86.7 33-23.2 72.2-35.5 113.3-35.5h189.1V727c0 41.1-12.3 80.3-35.5 113.3-21.7 30.7-51.7 54.9-86.8 69.7-24.8 10.5-51 15.9-77 15.9zM295.1 582c-32 0-62.4 9.5-88 27.4-24 16.9-42.9 40.4-54.5 67.9-11.2 26.4-14.9 54.6-10.7 81.7 4.5 29.3 17.7 55.4 39.2 77.6 0.7 0.7 1.4 1.5 2.2 2.2l2.2 2.2c22.2 21.5 48.4 34.7 77.6 39.2 27.1 4.2 55.3 0.5 81.7-10.7 27.5-11.7 51-30.5 67.9-54.5 18-25.5 27.4-55.9 27.4-88V582h-145zM737.7 925.9c-26 0-52.2-5.4-77-15.9-35.1-14.9-65.1-39-86.7-69.7-23.2-33-35.5-72.2-35.5-113.3V538h189.1c41.1 0 80.3 12.3 113.3 35.5 30.7 21.6 54.8 51.6 69.7 86.7 14.4 33.9 19.1 70.4 13.7 105.6-5.8 37.9-23.5 73-51.1 101.5l-2.7 2.7-2.7 2.7c-28.5 27.6-63.6 45.3-101.5 51.1-9.5 1.4-19 2.1-28.6 2.1zM582.5 582v145c0 32 9.5 62.4 27.4 88 16.9 24 40.4 42.8 67.9 54.5 26.4 11.2 54.6 14.9 81.7 10.7 29.3-4.5 55.4-17.7 77.6-39.2 0.7-0.7 1.5-1.4 2.2-2.2 0.7-0.7 1.4-1.5 2.2-2.2 21.5-22.2 34.7-48.4 39.2-77.6 4.2-27.1 0.5-55.3-10.7-81.7-11.7-27.5-30.5-51-54.5-67.9-25.5-18-55.9-27.4-88-27.4h-145z" p-id="3116"></path></svg>